<svg id="exMlgQP1nuG1" xmlns="http://www.w3.org/2000/svg" xmlns:xlink="http://www.w3.org/1999/xlink" viewBox="0 0 1762 303" shape-rendering="geometricPrecision" text-rendering="geometricPrecision"><style><![CDATA[#exMlgQP1nuG2 {animation: exMlgQP1nuG2_s_p 3000ms linear infinite normal forwards}@keyframes exMlgQP1nuG2_s_p { 0% {stroke: rgb(192,192,192)} 16.666667% {stroke: rgb(241,53,174)} 33.333333% {stroke: rgb(192,192,192)} 50% {stroke: rgb(241,53,174)} 66.666667% {stroke: rgb(192,192,192)} 83.333333% {stroke: rgb(241,53,174)} 100% {stroke: rgb(192,192,192)}}]]></style><path id="exMlgQP1nuG2" d="M1,245.742C1,245.742,90.5851,221.52,148.172,227.613C179.324,230.909,195.211,241.984,226.31,245.742C291.69,253.643,330.592,245.521,393.966,227.613C436.46,215.605,454.504,184.061,498.655,184.88C540.894,185.664,559.204,210.972,598.035,227.613C647.773,248.929,672.669,293.792,725.483,282C752.926,275.872,759.935,250.249,787.69,245.742C819.828,240.524,838.045,280.27,868.104,267.756C888.015,259.466,890.833,242.913,906.035,227.613C937.604,195.837,947.57,161.526,991,150.565C1025.5,141.858,1047.98,150.313,1081.28,162.866C1098.76,169.459,1106.92,176.784,1123.76,184.88C1189.81,216.633,1228.08,242.116,1301.28,245.742C1367.45,249.02,1414.05,250.683,1467.41,211.426C1488.68,195.782,1500.21,185.098,1514.45,162.866C1530.66,137.555,1521.53,113.871,1540.24,90.3502C1564.24,60.1906,1590.44,38.1736,1628.24,45.6751C1655.95,51.1737,1657.1,86.8729,1685.14,90.3502C1730.56,95.9845,1761,1,1761,1" fill="none" stroke="rgb(192,192,192)" stroke-width="1"/></svg>