<svg width="24" height="24" viewBox="0 0 24 24" fill="none" xmlns="http://www.w3.org/2000/svg">
<path d="M0 12C0 5.37258 5.37258 0 12 0C18.6274 0 24 5.37258 24 12C24 18.6274 18.6274 24 12 24C5.37258 24 0 18.6274 0 12Z" fill="#999999"/>
<g clip-path="url(#clip0)">
<path d="M12.0003 1.5L11.8594 1.97856V15.8641L12.0003 16.0046L18.4456 12.1947L12.0003 1.5Z" fill="#343434"/>
<path d="M12.0002 1.5L5.55469 12.1947L12.0002 16.0046V9.265V1.5Z" fill="#8C8C8C"/>
<path d="M12.0013 17.2259L11.9219 17.3227V22.269L12.0013 22.5008L18.4506 13.418L12.0013 17.2259Z" fill="#3C3C3B"/>
<path d="M12.0002 22.5008V17.2259L5.55469 13.418L12.0002 22.5008Z" fill="#8C8C8C"/>
<path d="M12 16.0053L18.4454 12.1954L12 9.26562V16.0053Z" fill="#141414"/>
<path d="M5.55469 12.1954L12.0002 16.0053V9.26562L5.55469 12.1954Z" fill="#393939"/>
</g>
<defs>
<clipPath id="clip0">
<rect x="1.5" y="1.5" width="21" height="21" fill="white"/>
</clipPath>
</defs>
</svg>
