<svg width="48" height="48" viewBox="0 0 48 48" fill="none" xmlns="http://www.w3.org/2000/svg">
<rect width="48" height="48" fill="#17171C"/>
<path d="M21 33.75C20.8519 33.7493 20.7074 33.7047 20.5846 33.622C20.4618 33.5392 20.3663 33.422 20.31 33.285L16.7475 24.75H13.5V23.25H17.25C17.3981 23.2507 17.5426 23.2953 17.6654 23.378C17.7882 23.4608 17.8837 23.578 17.94 23.715L21 30.96L27.045 14.7375C27.0986 14.594 27.195 14.4703 27.321 14.3831C27.447 14.296 27.5968 14.2495 27.75 14.25C27.9047 14.2527 28.0547 14.3032 28.1796 14.3945C28.3044 14.4858 28.398 14.6134 28.4475 14.76L31.29 23.25H34.5V24.75H30.75C30.5928 24.7504 30.4394 24.7014 30.3115 24.6099C30.1837 24.5184 30.0878 24.389 30.0375 24.24L27.75 17.25L21.705 33.2625C21.6514 33.4061 21.555 33.5297 21.429 33.6169C21.303 33.704 21.1532 33.7505 21 33.75Z" fill="white"/>
</svg>
