<svg width="24" height="24" viewBox="0 0 24 24" fill="none" xmlns="http://www.w3.org/2000/svg">
<path d="M0 12C0 5.37258 5.37258 0 12 0C18.6274 0 24 5.37258 24 12C24 18.6274 18.6274 24 12 24C5.37258 24 0 18.6274 0 12Z" fill="#B4B4BC"/>
<g clip-path="url(#clip0)">
<path d="M11.9983 1.5L11.8574 1.97856V15.8641L11.9983 16.0046L18.4437 12.1947L11.9983 1.5Z" fill="#343434"/>
<path d="M11.9983 1.5L5.55273 12.1947L11.9983 16.0046V9.265V1.5Z" fill="#8C8C8C"/>
<path d="M11.9983 17.2259L11.9189 17.3227V22.269L11.9983 22.5008L18.4477 13.418L11.9983 17.2259Z" fill="#3C3C3B"/>
<path d="M11.9983 22.5008V17.2259L5.55273 13.418L11.9983 22.5008Z" fill="#8C8C8C"/>
<path d="M11.999 16.0043L18.4444 12.1944L11.999 9.26465V16.0043Z" fill="#141414"/>
<path d="M5.55273 12.1944L11.9983 16.0043V9.26465L5.55273 12.1944Z" fill="#393939"/>
</g>
<defs>
<clipPath id="clip0">
<rect x="1.5" y="1.5" width="21" height="21" fill="white"/>
</clipPath>
</defs>
</svg>
