<svg width="34" height="34" viewBox="0 0 34 34" fill="none" xmlns="http://www.w3.org/2000/svg">
<path d="M17.9661 9.20191C18.96 9.10951 19.6333 10.0129 20.4528 10.2941C21.3024 10.5855 22.5593 10.3594 23.1503 10.9777C23.7412 11.5958 23.4764 12.8599 23.736 13.7289C23.9864 14.5672 24.8563 15.2782 24.7322 16.2805C24.6082 17.2829 23.54 18.1739 23.0738 19.0788C22.5905 20.0169 22.5448 21.2606 21.7854 22.0043C21.0259 22.748 19.7963 22.753 18.854 23.2109C17.9449 23.6527 17.0298 24.7037 16.0359 24.796C15.0421 24.8884 14.3688 23.985 13.5493 23.7039C12.6997 23.4124 11.4428 23.6385 10.8518 23.0203C10.2608 22.4021 10.5257 21.138 10.2661 20.269C10.0156 19.4307 9.14581 18.7197 9.26985 17.7174C9.39389 16.715 10.4621 15.8241 10.9283 14.9191C11.4116 13.981 11.4573 12.7373 12.2167 11.9936C12.9762 11.2499 14.2058 11.2449 15.1481 10.787C16.0571 10.3452 16.9723 9.29419 17.9661 9.20191Z" stroke="url(#paint0_linear)" stroke-width="0.1" stroke-miterlimit="10"/>
<path d="M18.287 9.07038C19.2978 9.01573 19.9441 9.96586 20.7635 10.286C21.6128 10.6178 22.8955 10.437 23.4697 11.0924C24.044 11.7478 23.7255 13.029 23.9541 13.9274C24.1748 14.7942 25.0279 15.5554 24.8624 16.5748C24.6969 17.5942 23.5794 18.462 23.071 19.3682C22.544 20.3075 22.4485 21.5767 21.6494 22.3063C20.8503 23.0359 19.6041 22.9918 18.6311 23.4222C17.6925 23.8373 16.7235 24.8747 15.7128 24.9293C14.702 24.984 14.0557 24.0338 13.2363 23.7137C12.387 23.3819 11.1043 23.5627 10.5301 22.9073C9.95578 22.2519 10.2743 20.9707 10.0457 20.0723C9.82503 19.2055 8.97186 18.4443 9.13736 17.4249C9.30287 16.4055 10.4204 15.5377 10.9288 14.6315C11.4558 13.6922 11.5513 12.423 12.3504 11.6934C13.1495 10.9638 14.3957 11.0079 15.3687 10.5775C16.3073 10.1624 17.2763 9.12503 18.287 9.07038Z" stroke="url(#paint1_linear)" stroke-width="0.1" stroke-miterlimit="10"/>
<path d="M18.62 8.94744C19.6464 8.93198 20.2637 9.92885 21.0813 10.2886C21.9287 10.6617 23.2356 10.5282 23.7915 11.2209C24.3475 11.9136 23.974 13.2102 24.17 14.1376C24.3591 15.0322 25.1935 15.8443 24.9854 16.8794C24.7774 17.9145 23.6105 18.7567 23.0594 19.6624C22.4881 20.6013 22.3411 21.8945 21.5025 22.6082C20.6638 23.3219 19.4029 23.227 18.3998 23.6278C17.4322 24.0146 16.4093 25.036 15.3829 25.0515C14.3565 25.0669 13.7392 24.0701 12.9216 23.7103C12.0742 23.3372 10.7673 23.4707 10.2113 22.778C9.65537 22.0853 10.0289 20.7887 9.83286 19.8613C9.64375 18.9667 8.80939 18.1546 9.01744 17.1195C9.22549 16.0844 10.3924 15.2422 10.9435 14.3365C11.5148 13.3976 11.6618 12.1044 12.5004 11.3907C13.339 10.677 14.5999 10.772 15.603 10.3711C16.5707 9.98434 17.5937 8.96278 18.62 8.94744Z" stroke="url(#paint2_linear)" stroke-width="0.1" stroke-miterlimit="10"/>
<path d="M18.9578 8.83641C19.9985 8.86169 20.5844 9.90506 21.3985 10.3055C22.2425 10.7206 23.572 10.6364 24.1079 11.3666C24.6437 12.0967 24.2138 13.4068 24.3758 14.3623C24.5321 15.2841 25.3454 16.1473 25.0935 17.1969C24.8415 18.2465 23.6258 19.0605 23.0315 19.964C22.4154 20.9007 22.2152 22.2164 21.337 22.9122C20.4589 23.608 19.185 23.4606 18.1528 23.8302C17.157 24.1867 16.0799 25.1897 15.0392 25.1644C13.9985 25.1391 13.4125 24.0958 12.5984 23.6954C11.7545 23.2802 10.4249 23.3645 9.88911 22.6343C9.35329 21.9042 9.78317 20.594 9.62114 19.6385C9.46486 18.7168 8.6516 17.8535 8.90351 16.8039C9.15542 15.7544 10.3711 14.9403 10.9654 14.0368C11.5816 13.1001 11.7818 11.7845 12.6599 11.0887C13.538 10.3928 14.812 10.5402 15.8442 10.1706C16.84 9.8141 17.9172 8.81112 18.9578 8.83641Z" stroke="url(#paint3_linear)" stroke-width="0.1" stroke-miterlimit="10"/>
<path d="M19.3093 8.73523C20.3629 8.80271 20.9152 9.89234 21.7243 10.3341C22.563 10.792 23.9136 10.7592 24.4276 11.5268C24.9417 12.2944 24.4541 13.616 24.5803 14.599C24.7021 15.5472 25.492 16.4619 25.1951 17.5244C24.8983 18.587 23.634 19.3701 22.9961 20.2698C22.3347 21.2025 22.0796 22.539 21.1622 23.2149C20.2449 23.8908 18.9598 23.6894 17.8992 24.0258C16.8761 24.3503 15.7449 25.3322 14.6913 25.2647C13.6378 25.1972 13.0854 24.1076 12.2763 23.6659C11.4377 23.2079 10.087 23.2408 9.57299 22.4732C9.05898 21.7056 9.54651 20.3839 9.42031 19.4009C9.29855 18.4527 8.50865 17.5381 8.80551 16.4755C9.10236 15.413 10.3666 14.6298 11.0045 13.7301C11.666 12.7975 11.921 11.461 12.8384 10.7851C13.7557 10.1091 15.0408 10.3106 16.1014 9.97419C17.1247 9.64977 18.2557 8.66788 19.3093 8.73523Z" stroke="url(#paint4_linear)" stroke-width="0.1" stroke-miterlimit="10"/>
<path d="M19.6673 8.64637C20.7322 8.75734 21.2488 9.89299 22.0512 10.3768C22.8829 10.8784 24.2527 10.8987 24.7432 11.7037C25.2336 12.5087 24.6873 13.8398 24.7762 14.8494C24.862 15.8233 25.6261 16.7897 25.2833 17.8636C24.9404 18.9376 23.6283 19.6874 22.946 20.5812C22.2388 21.5079 21.9274 22.8634 20.971 23.5176C20.0146 24.1717 18.7204 23.9144 17.6324 24.2156C16.5828 24.5064 15.3976 25.4645 14.3327 25.3536C13.2679 25.2426 12.7512 24.1069 11.949 23.6231C11.1172 23.1216 9.74742 23.1012 9.2569 22.2962C8.76649 21.4912 9.31286 20.1601 9.22394 19.1505C9.13813 18.1767 8.374 17.2102 8.71687 16.1363C9.05975 15.0624 10.3719 14.3125 11.0541 13.4187C11.7613 12.4921 12.0728 11.1365 13.0291 10.4824C13.9855 9.82828 15.2797 10.0856 16.3678 9.78429C17.4174 9.49355 18.6025 8.53527 19.6673 8.64637Z" stroke="url(#paint5_linear)" stroke-width="0.1" stroke-miterlimit="10"/>
<path d="M20.0338 8.56972C21.1084 8.72576 21.5869 9.90695 22.3807 10.4334C23.2037 10.9792 24.5909 11.0548 25.056 11.8971C25.5211 12.7394 24.9146 14.0778 24.9647 15.1131C25.013 16.1118 25.749 17.1299 25.359 18.2136C24.9689 19.2974 23.6097 20.0113 22.883 20.8974C22.1296 21.816 21.7603 23.189 20.7653 23.8193C19.7704 24.4495 18.4691 24.1348 17.3547 24.3992C16.2795 24.6543 15.0407 25.5861 13.9661 25.4302C12.8914 25.2742 12.413 24.093 11.6191 23.5665C10.7962 23.0207 9.40896 22.9451 8.94384 22.1028C8.47884 21.2606 9.08526 19.9221 9.03516 18.8868C8.98686 17.8881 8.2509 16.8701 8.64087 15.7863C9.03097 14.7025 10.3901 13.9886 11.1169 13.1025C11.8702 12.1839 12.2396 10.8109 13.2345 10.1807C14.2295 9.55041 15.5307 9.86512 16.6452 9.60063C17.7203 9.3456 18.9591 8.4138 20.0338 8.56972Z" stroke="url(#paint6_linear)" stroke-width="0.1" stroke-miterlimit="10"/>
<path d="M20.4086 8.50617C21.4914 8.70858 21.9293 9.93484 22.7129 10.5046C23.5251 11.0952 24.9278 11.228 25.3657 12.1073C25.8037 12.9866 25.136 14.3301 25.1457 15.3902C25.1551 16.4127 25.8605 17.4825 25.4223 18.5744C24.9842 19.6664 23.5785 20.3416 22.8069 21.2181C22.0072 22.1268 21.5785 23.515 20.5452 24.1193C19.512 24.7236 18.206 24.35 17.0661 24.5757C15.9666 24.7934 14.6743 25.6962 13.5916 25.4938C12.5089 25.2914 12.0709 24.0651 11.2873 23.4954C10.4752 22.9048 9.07237 22.772 8.63446 21.8927C8.19654 21.0134 8.8642 19.6698 8.85449 18.6098C8.84514 17.5873 8.13974 16.5174 8.57789 15.4255C9.01604 14.3336 10.4217 13.6584 11.1933 12.7819C11.993 11.8732 12.4217 10.4849 13.455 9.88067C14.4882 9.27641 15.7942 9.64997 16.9341 9.4243C18.0335 9.20654 19.3258 8.30375 20.4086 8.50617Z" stroke="url(#paint7_linear)" stroke-width="0.1" stroke-miterlimit="10"/>
<path d="M20.7885 8.4569C21.8777 8.70702 22.2728 9.97773 23.0443 10.5913C23.8439 11.2274 25.2601 11.4191 25.6689 12.3353C26.0776 13.2514 25.348 14.5979 25.3158 15.6814C25.2847 16.7267 25.9572 17.8482 25.4698 18.9467C24.9825 20.0451 23.5314 20.6789 22.7149 21.5438C21.8686 22.4405 21.3791 23.8421 20.3082 24.4183C19.2373 24.9945 17.9287 24.5604 16.7647 24.7456C15.6419 24.9242 14.2967 25.7951 13.2075 25.545C12.1184 25.2949 11.7232 24.0241 10.9518 23.4105C10.1522 22.7745 8.73598 22.5828 8.32719 21.6666C7.9184 20.7505 8.64801 19.4041 8.68025 18.3205C8.71129 17.2752 8.03884 16.1537 8.52625 15.0552C9.01354 13.9568 10.4646 13.323 11.2811 12.458C12.1275 11.5614 12.6169 10.1598 13.6878 9.58356C14.7588 9.00735 16.0674 9.44142 17.2313 9.25626C18.3541 9.0777 19.6995 8.20678 20.7885 8.4569Z" stroke="url(#paint8_linear)" stroke-width="0.1" stroke-miterlimit="10"/>
<path d="M21.1782 8.41967C22.2719 8.71881 22.622 10.0331 23.3793 10.6911C24.1643 11.3731 25.5917 11.6256 25.9696 12.5782C26.3476 13.5307 25.5548 14.8775 25.4792 15.9836C25.4063 17.0505 26.0432 18.2236 25.5058 19.3266C24.9684 20.4297 23.4729 21.0193 22.6113 21.8706C21.7181 22.753 21.1666 24.1658 20.0586 24.7119C18.9506 25.2579 17.6418 24.7621 16.455 24.9047C15.3102 25.0423 13.9125 25.8785 12.8188 25.5793C11.7251 25.2802 11.375 23.9658 10.6177 23.3079C9.83273 22.6258 8.40526 22.3733 8.02739 21.4208C7.6494 20.4683 8.44218 19.1215 8.5178 18.0154C8.59066 16.9484 7.95381 15.7754 8.49119 14.6723C9.02858 13.5693 10.5241 12.9796 11.3857 12.1284C12.2789 11.246 12.8304 9.83312 13.9384 9.28711C15.0463 8.7411 16.3552 9.2369 17.542 9.09428C18.6869 8.9567 20.0845 8.12042 21.1782 8.41967Z" stroke="url(#paint9_linear)" stroke-width="0.1" stroke-miterlimit="10"/>
<path d="M21.5758 8.39891C22.6721 8.74838 22.9747 10.1055 23.7161 10.8082C24.4845 11.5364 25.9209 11.8516 26.2661 12.8402C26.6114 13.8288 25.7546 15.1734 25.6342 16.3008C25.5181 17.3882 26.1169 18.6124 25.5287 19.7181C24.9405 20.8238 23.4017 21.3667 22.4948 22.2022C21.5548 23.0683 20.94 24.49 19.7956 25.0038C18.6512 25.5175 17.3446 24.9585 16.1365 25.0567C14.971 25.1515 13.5216 25.9503 12.4251 25.6008C11.3288 25.2514 11.0262 23.8942 10.2848 23.1916C9.51638 22.4633 8.08004 22.1481 7.73476 21.1595C7.38949 20.1709 8.24626 18.8264 8.3667 17.699C8.48283 16.6115 7.88397 15.3873 8.47217 14.2816C9.06037 13.1759 10.5992 12.633 11.506 11.7976C12.4461 10.9315 13.0609 9.50975 14.2053 8.99598C15.3497 8.4822 16.6562 9.04128 17.8644 8.94301C19.0299 8.84821 20.4794 8.04956 21.5758 8.39891Z" stroke="url(#paint10_linear)" stroke-width="0.1" stroke-miterlimit="10"/>
<path d="M21.9772 8.39342C23.0743 8.79442 23.3272 10.1934 24.0506 10.9411C24.8003 11.7161 26.2434 12.0957 26.554 13.1196C26.8646 14.1437 25.9431 15.4834 25.7766 16.6307C25.6157 17.7375 26.1741 19.0124 25.5342 20.1189C24.8944 21.2253 23.3135 21.7186 22.3616 22.5362C21.3747 23.3837 20.6953 24.812 19.5153 25.2913C18.3353 25.7706 17.0335 25.147 15.8054 25.1991C14.6206 25.2495 13.1202 26.0077 12.0231 25.6068C10.926 25.2058 10.6731 23.8069 9.94974 23.0592C9.19999 22.2842 7.75694 21.9046 7.4463 20.8806C7.13566 19.8566 8.05715 18.5168 8.22373 17.3696C8.38457 16.2628 7.82621 14.9879 8.46606 13.8814C9.10591 12.7749 10.6868 12.2817 11.6387 11.4641C12.6256 10.6165 13.305 9.18823 14.485 8.70897C15.665 8.22971 16.9668 8.85326 18.1949 8.80113C19.3797 8.75068 20.8802 7.99242 21.9772 8.39342Z" stroke="url(#paint11_linear)" stroke-width="0.1" stroke-miterlimit="10"/>
<path d="M22.3841 8.4036C23.48 8.85721 23.6808 10.297 24.384 11.09C25.113 11.9121 26.5601 12.3576 26.8343 13.4165C27.1086 14.4754 26.1218 15.8077 25.9073 16.9736C25.7005 18.0982 26.2157 19.4234 25.5235 20.5285C24.8313 21.6337 23.2099 22.0745 22.2128 22.872C21.1791 23.6987 20.434 25.1312 19.2194 25.5738C18.0048 26.0163 16.7103 25.327 15.4638 25.3312C14.2613 25.3353 12.7109 26.0501 11.6151 25.5965C10.5193 25.1429 10.3185 23.7031 9.61529 22.9101C8.88627 22.0881 7.43914 21.6425 7.16494 20.5837C6.89074 19.5247 7.87754 18.1924 8.09194 17.0265C8.29879 15.9019 7.78358 14.5767 8.4758 13.4716C9.16803 12.3664 10.7894 11.9256 11.7865 11.1281C12.8202 10.3015 13.5653 8.86895 14.7799 8.42637C15.9945 7.98378 17.2889 8.67313 18.5355 8.66893C19.738 8.66486 21.2884 7.94998 22.3841 8.4036Z" stroke="url(#paint12_linear)" stroke-width="0.1" stroke-miterlimit="10"/>
<path d="M22.7983 8.43015C23.8907 8.93758 24.037 10.4169 24.7182 11.2554C25.4243 12.1246 26.8731 12.6377 27.1089 13.7309C27.3447 14.824 26.292 16.1461 26.0285 17.3289C25.7743 18.4699 26.2438 19.8448 25.4985 20.9465C24.7533 22.0482 23.0929 22.4339 22.0508 23.2089C20.9706 24.0124 20.1589 25.4466 18.9105 25.8503C17.6621 26.2541 16.3778 25.4979 15.1145 25.4523C13.8958 25.4083 12.2965 26.0771 11.2041 25.5696C10.1117 25.0622 9.96541 23.5829 9.28422 22.7444C8.57809 21.8752 7.12929 21.3621 6.89355 20.2689C6.6577 19.1758 7.71042 17.8537 7.97395 16.6709C8.22814 15.5299 7.75859 14.155 8.50391 13.0533C9.2491 11.9516 10.9096 11.5659 11.9516 10.7909C13.0318 9.98742 13.8435 8.55323 15.0919 8.14948C16.3403 7.74572 17.6246 8.50194 18.8879 8.54748C20.1064 8.59146 21.7058 7.92285 22.7983 8.43015Z" stroke="url(#paint13_linear)" stroke-width="0.1" stroke-miterlimit="10"/>
<path d="M23.2138 8.47391C24.3007 9.03611 24.3903 10.5538 25.0473 11.4379C25.7284 12.3544 27.176 12.9367 27.3717 14.0632C27.5673 15.1898 26.4482 16.4988 26.1343 17.697C25.8316 18.853 26.2528 20.2767 25.454 21.3728C24.6551 22.4689 22.9573 22.7967 21.8707 23.547C20.7443 24.3249 19.865 25.758 18.584 26.1208C17.303 26.4835 16.0316 25.6594 14.7533 25.5623C13.5202 25.4687 11.8729 26.0881 10.7861 25.5259C9.69928 24.9637 9.60963 23.446 8.95264 22.5619C8.27157 21.6455 6.82384 21.0631 6.62825 19.9366C6.43267 18.81 7.55178 17.501 7.86565 16.3028C8.16838 15.1469 7.74712 13.7231 8.54601 12.627C9.3449 11.5309 11.0426 11.2031 12.1292 10.4528C13.2557 9.67488 14.135 8.24177 15.416 7.879C16.697 7.51635 17.9683 8.34041 19.2467 8.43748C20.4798 8.53108 22.1269 7.91172 23.2138 8.47391Z" stroke="url(#paint14_linear)" stroke-width="0.1" stroke-miterlimit="10"/>
<path d="M23.6345 8.5353C24.7135 9.15322 24.7442 10.7078 25.3749 11.6376C26.0288 12.6014 27.4726 13.2544 27.6262 14.4134C27.7798 15.5725 26.5939 16.8656 26.2283 18.0775C25.8757 19.2465 26.2461 20.7185 25.3933 21.8067C24.5403 22.8949 22.8069 23.162 21.6761 23.8854C20.5039 24.6354 19.5561 26.0648 18.2437 26.3841C16.9313 26.7035 15.6756 25.8106 14.3842 25.6603C13.1384 25.5153 11.4448 26.0824 10.3657 25.4645C9.28671 24.8465 9.25603 23.2919 8.62529 22.3622C7.97142 21.3984 6.52765 20.7453 6.37401 19.5863C6.22036 18.4273 7.40635 17.1342 7.77188 15.9223C8.12446 14.7532 7.75414 13.2813 8.60695 12.1931C9.45989 11.1049 11.1933 10.8378 12.3241 10.1144C13.4963 9.36438 14.4441 7.93499 15.7565 7.61561C17.069 7.29622 18.3246 8.18918 19.616 8.33947C20.8618 8.48448 22.5555 7.91738 23.6345 8.5353Z" stroke="url(#paint15_linear)" stroke-width="0.1" stroke-miterlimit="10"/>
<path d="M24.0601 8.61399C25.129 9.2886 25.0984 10.8786 25.7006 11.854C26.3249 12.8651 27.7621 13.5901 27.8717 14.7807C27.9814 15.9714 26.7284 17.2453 26.31 18.4692C25.9064 19.6498 26.2234 21.1688 25.3159 22.2468C24.4086 23.3248 22.6415 23.5284 21.467 24.2226C20.2495 24.9421 19.2322 26.3649 17.8897 26.639C16.5472 26.913 15.3103 25.9501 14.0076 25.745C12.7509 25.547 11.0123 26.0588 9.94343 25.3842C8.87454 24.7096 8.9051 23.1196 8.30288 22.1442C7.67861 21.1331 6.24143 20.4082 6.13177 19.2175C6.02211 18.0268 7.27509 16.7529 7.69347 15.529C8.0971 14.3484 7.78012 12.8294 8.68758 11.7514C9.59493 10.6734 11.362 10.4698 12.5365 9.77565C13.754 9.0561 14.7713 7.6333 16.1138 7.35922C17.4563 7.08525 18.6932 8.04808 19.9959 8.25326C21.2526 8.45112 22.9912 7.93939 24.0601 8.61399Z" stroke="url(#paint16_linear)" stroke-width="0.1" stroke-miterlimit="10"/>
<path d="M24.485 8.71312C25.5413 9.44525 25.4473 11.0689 26.019 12.0897C26.6115 13.148 28.0391 13.9464 28.103 15.1675C28.167 16.3886 26.8467 17.6405 26.3742 18.8744C25.9184 20.0648 26.1793 21.6299 25.2171 22.6952C24.2549 23.7605 22.4562 23.8979 21.2386 24.5603C19.9764 25.2469 18.8893 26.6604 17.518 26.8866C16.1468 27.1129 14.9315 26.0796 13.6197 25.8177C12.3542 25.5652 10.5721 26.0187 9.51575 25.2866C8.45944 24.5544 8.5534 22.9308 7.98174 21.91C7.38922 20.8517 5.96163 20.0533 5.89776 18.8322C5.83376 17.6111 7.15397 16.3592 7.62652 15.1253C8.08229 13.9349 7.82138 12.3698 8.78362 11.3045C9.74573 10.2392 11.5444 10.1018 12.762 9.43938C14.0242 8.75279 15.1113 7.33934 16.4826 7.11295C17.8538 6.88669 19.0691 7.91999 20.3809 8.18185C21.6466 8.43448 23.4287 7.98087 24.485 8.71312Z" stroke="url(#paint17_linear)" stroke-width="0.1" stroke-miterlimit="10"/>
<path d="M24.9116 8.83141C25.9529 9.62191 25.7934 11.2773 26.3321 12.3435C26.8906 13.4485 28.3055 14.3216 28.3219 15.5721C28.3383 16.8225 26.951 18.049 26.4232 19.2912C25.9141 20.4896 26.1165 22.0993 25.0993 23.1495C24.0821 24.1997 22.2541 24.2683 20.994 24.8965C19.6878 25.5477 18.5301 26.9487 17.1317 27.1251C15.7332 27.3015 14.5428 26.1969 13.2238 25.8769C11.9514 25.5682 10.1277 25.9605 9.08623 25.1701C8.0449 24.3796 8.20441 22.7242 7.66571 21.658C7.10723 20.5529 5.69234 19.6799 5.67593 18.4294C5.65951 17.179 7.04683 15.9525 7.57463 14.7103C8.08373 13.5119 7.88131 11.9022 8.89855 10.852C9.9158 9.80179 11.7438 9.73324 13.0038 9.10501C14.31 8.45378 15.4677 7.05279 16.8662 6.87638C18.2647 6.69997 19.4551 7.80458 20.7741 8.12456C22.0465 8.43316 23.8703 8.04091 24.9116 8.83141Z" stroke="url(#paint18_linear)" stroke-width="0.1" stroke-miterlimit="10"/>
<path d="M25.3414 8.96768C26.3652 9.81714 26.1379 11.5025 26.6416 12.6135C27.1638 13.7652 28.5628 14.7139 28.5297 15.9924C28.4968 17.2709 27.0424 18.4689 26.4583 19.7173C25.895 20.9215 26.0363 22.5747 24.9639 23.6073C23.8915 24.6399 22.0364 24.6369 20.7347 25.2286C19.3852 25.8419 18.1567 27.2272 16.7326 27.3518C15.3085 27.4762 14.1461 26.2998 12.8222 25.92C11.5451 25.5536 9.68151 25.8816 8.65768 25.0322C7.63384 24.1827 7.86119 22.4973 7.35748 21.3864C6.83532 20.2346 5.43625 19.286 5.46933 18.0075C5.50228 16.7289 6.95672 15.531 7.54072 14.2826C8.10411 13.0784 7.96282 11.4251 9.03519 10.3925C10.1076 9.35993 11.9626 9.36293 13.2644 8.77125C14.6138 8.15789 15.8424 6.7726 17.2665 6.64808C18.6906 6.52368 19.853 7.70008 21.1769 8.07987C22.454 8.44623 24.3176 8.11822 25.3414 8.96768Z" stroke="url(#paint19_linear)" stroke-width="0.1" stroke-miterlimit="10"/>
<path d="M25.7709 9.12507C26.7747 10.0341 26.4775 11.7474 26.9438 12.9028C27.4273 14.1007 28.8073 15.1261 28.7232 16.4314C28.6391 17.7366 27.1179 18.9027 26.4766 20.1551C25.8581 21.3633 25.9356 23.0584 24.808 24.0707C23.6804 25.083 21.8008 25.0058 20.4582 25.5584C19.0664 26.1313 17.7667 27.4979 16.3188 27.5681C14.8708 27.6383 13.7395 26.3896 12.4131 25.9486C11.1337 25.5232 9.23222 25.7839 8.2284 24.8748C7.22458 23.9658 7.5218 22.2525 7.05548 21.0971C6.57203 19.8992 5.19201 18.8738 5.27614 17.5685C5.36028 16.2633 6.88147 15.0972 7.52276 13.8448C8.14127 12.6366 8.06374 10.9416 9.19136 9.92923C10.319 8.9169 12.1985 8.99408 13.5411 8.44148C14.9329 7.86862 16.2326 6.50203 17.6806 6.4318C19.1285 6.36157 20.2599 7.61035 21.5862 8.05126C22.8658 8.47659 24.7671 8.21605 25.7709 9.12507Z" stroke="url(#paint20_linear)" stroke-width="0.1" stroke-miterlimit="10"/>
<path d="M26.2015 9.30249C27.1827 10.2716 26.8137 12.0105 27.2403 13.21C27.6827 14.4534 29.0404 15.5566 28.9035 16.8871C28.7666 18.2176 27.1789 19.3485 26.4794 20.6028C25.8047 21.8127 25.8162 23.5481 24.6335 24.5375C23.4507 25.5271 21.5491 25.373 20.167 25.884C18.7341 26.4137 17.3627 27.7583 15.8927 27.7722C14.4227 27.7862 13.3259 26.4647 11.9993 25.961C10.7196 25.4752 8.78268 25.6655 7.80151 24.6964C6.82034 23.7274 7.18934 21.9884 6.7627 20.7889C6.32035 19.5455 4.96263 18.4423 5.09949 17.1118C5.23647 15.7813 6.82418 14.6504 7.52359 13.3961C8.19832 12.1862 8.18681 10.4508 9.36956 9.4614C10.5523 8.47184 12.4539 8.62596 13.8361 8.11495C15.2689 7.58523 16.6403 6.24057 18.1103 6.22667C19.5803 6.21277 20.6772 7.53418 22.0037 8.03789C23.2833 8.52374 25.2204 8.33342 26.2015 9.30249Z" stroke="url(#paint21_linear)" stroke-width="0.1" stroke-miterlimit="10"/>
<path d="M26.6291 9.50106C27.5848 10.5306 27.142 12.293 27.5268 13.5359C27.9258 14.8243 29.2579 16.0059 29.0664 17.3601C28.8748 18.7144 27.2212 19.8065 26.4627 21.0603C25.7311 22.2698 25.6739 24.0437 24.4363 25.0077C23.1986 25.9716 21.2779 25.7381 19.8569 26.205C18.3839 26.6891 16.9411 28.0085 15.4509 27.9639C13.9608 27.9193 12.9017 26.5251 11.5775 25.9573C10.3001 25.4096 8.32985 25.5267 7.37397 24.4971C6.41821 23.4675 6.86103 21.7052 6.47621 20.4623C6.07725 19.1739 4.74517 17.9923 4.93668 16.6381C5.1282 15.2838 6.78182 14.1917 7.54031 12.9378C8.27197 11.7284 8.32913 9.95443 9.56677 8.99052C10.8044 8.02661 12.7252 8.26006 14.1462 7.79315C15.6192 7.3091 17.062 5.98972 18.5521 6.03431C20.0423 6.07889 21.1014 7.47316 22.4255 8.04087C23.7029 8.58856 25.6733 8.47159 26.6291 9.50106Z" stroke="url(#paint22_linear)" stroke-width="0.1" stroke-miterlimit="10"/>
<path d="M27.0526 9.72236C27.9803 10.8127 27.4616 12.596 27.8023 13.8816C28.1555 15.2143 29.4585 16.4749 29.2108 17.8512C28.963 19.2275 27.2441 20.2776 26.4258 21.5285C25.6365 22.7352 25.5083 24.5457 24.2159 25.4814C22.9235 26.417 20.9865 26.1016 19.5281 26.522C18.0164 26.9577 16.5021 28.2483 14.9939 28.1432C13.4858 28.0381 12.4678 26.571 11.1486 25.9378C9.87584 25.3271 7.87479 25.3679 6.94707 24.2775C6.01935 23.1872 6.53804 21.4039 6.19732 20.1183C5.84414 18.7856 4.54119 17.525 4.78891 16.1487C5.03663 14.7724 6.75556 13.7223 7.57386 12.4714C8.36316 11.2646 8.49139 9.45415 9.7838 8.51852C11.0762 7.58289 13.0131 7.89832 14.4715 7.47791C15.9833 7.04215 17.4976 5.75154 19.0057 5.85665C20.5139 5.96175 21.5318 7.42889 22.8511 8.06203C24.1237 8.67288 26.1249 8.63201 27.0526 9.72236Z" stroke="url(#paint23_linear)" stroke-width="0.1" stroke-miterlimit="10"/>
<path d="M27.4751 9.96454C28.3719 11.1159 27.7757 12.9176 28.0699 14.2449C28.3749 15.6209 29.6453 16.9614 29.3396 18.358C29.034 19.7545 27.2506 20.759 26.3719 22.0046C25.5243 23.2063 25.3226 25.0514 23.9759 25.9558C22.6292 26.8603 20.6789 26.4605 19.1845 26.8319C17.6354 27.2168 16.0497 28.4752 14.5256 28.3074C13.0016 28.1396 12.0283 26.5996 10.7165 25.8998C9.45104 25.2247 7.42171 25.1865 6.52491 24.0352C5.62811 22.8838 6.22434 21.0821 5.93012 19.7548C5.62512 18.3788 4.35476 17.0383 4.66037 15.6417C4.96597 14.2452 6.74938 13.2407 7.62808 11.9951C8.47575 10.7934 8.67745 8.94825 10.0241 8.04391C11.3708 7.13944 13.3211 7.53924 14.8155 7.16784C16.3647 6.7829 17.9503 5.52453 19.4744 5.69231C20.9985 5.86009 21.9717 7.4001 23.2835 8.09987C24.5489 8.77496 26.5783 8.81319 27.4751 9.96454Z" stroke="url(#paint24_linear)" stroke-width="0.1" stroke-miterlimit="10"/>
<path d="M27.8946 10.2286C28.7577 11.4411 28.0822 13.2584 28.3277 14.6267C28.5823 16.0451 29.8164 17.4657 29.4514 18.8807C29.0863 20.2957 27.2394 21.2508 26.2996 22.4887C25.3931 23.6828 25.1155 25.5603 23.715 26.4307C22.3146 27.3011 20.3542 26.8147 18.8252 27.1344C17.2402 27.4659 15.5836 28.6885 14.0459 28.4561C12.5082 28.2237 11.5831 26.6111 10.2816 25.8435C9.02613 25.1029 6.97127 24.9827 6.10814 23.7703C5.24502 22.5578 5.92059 20.7405 5.67502 19.3722C5.42047 17.9538 4.18631 16.5332 4.55136 15.1182C4.91641 13.7032 6.76334 12.7481 7.70316 11.5103C8.60966 10.3161 8.88722 8.43865 10.2877 7.56821C11.6881 6.69778 13.6485 7.18423 15.1775 6.86448C16.7626 6.53299 18.4192 5.31046 19.9568 5.54284C21.4945 5.77522 22.4196 7.38785 23.7211 8.15545C24.9767 8.89597 27.0316 9.01618 27.8946 10.2286Z" stroke="url(#paint25_linear)" stroke-width="0.1" stroke-miterlimit="10"/>
<path d="M28.3069 10.5159C29.1335 11.7895 28.3768 13.6198 28.5714 15.0279C28.7731 16.4875 29.9673 17.9887 29.5413 19.4202C29.1154 20.8516 27.2059 21.7538 26.2046 22.9812C25.2386 24.1653 24.8829 26.0729 23.4295 26.9065C21.9759 27.74 20.0087 27.1645 18.4467 27.4301C16.8274 27.7054 15.1004 28.8886 13.5514 28.5897C12.0025 28.2908 11.1289 26.6057 9.84049 25.7693C8.59758 24.9624 6.52019 24.7573 5.69374 23.4839C4.86717 22.2103 5.62387 20.38 5.42924 18.972C5.22754 17.5124 4.03329 16.0111 4.45933 14.5796C4.88526 13.1482 6.79475 12.246 7.79605 11.0186C8.762 9.83451 9.1177 7.92694 10.5712 7.0933C12.0248 6.25978 13.9919 6.83527 15.554 6.5697C17.1732 6.29441 18.9003 5.11118 20.4493 5.41008C21.9981 5.70897 22.8717 7.39411 24.1601 8.2305C25.4029 9.03742 27.4804 9.24247 28.3069 10.5159Z" stroke="url(#paint26_linear)" stroke-width="0.1" stroke-miterlimit="10"/>
<path d="M28.7155 10.8251C29.5025 12.1597 28.6633 13.9998 28.8047 15.4466C28.9512 16.9463 30.1017 18.5281 29.6134 19.974C29.125 21.4198 27.1544 22.2654 26.0911 23.4798C25.0654 24.6513 24.6294 26.5864 23.1234 27.3801C21.6175 28.1739 19.647 27.507 18.0536 27.7161C16.4019 27.9327 14.605 29.0728 13.0472 28.7054C11.4896 28.3379 10.6712 26.581 9.3988 25.6747C8.17135 24.8005 6.07443 24.5079 5.2874 23.1733C4.50038 21.8387 5.33966 19.9986 5.19824 18.5519C5.05167 17.0521 3.90116 15.4703 4.38953 14.0245C4.8779 12.5787 6.8485 11.7331 7.91177 10.5187C8.93752 9.3472 9.37351 7.41206 10.8795 6.61833C12.3855 5.8246 14.3559 6.49142 15.9493 6.28241C17.601 6.06573 19.3979 4.92564 20.9557 5.29309C22.5133 5.66053 23.3317 7.41746 24.6041 8.32372C25.8316 9.19811 27.9285 9.49065 28.7155 10.8251Z" stroke="url(#paint27_linear)" stroke-width="0.1" stroke-miterlimit="10"/>
<path d="M29.115 11.1586C29.8596 12.5539 28.9362 14.4009 29.0221 15.8849C29.1112 17.4234 30.2143 19.086 29.6621 20.544C29.1098 22.0021 27.0795 22.7874 25.954 23.986C24.8682 25.1421 24.3496 27.1023 22.7922 27.8532C21.2348 28.6042 19.2645 27.844 17.6416 27.9938C15.9594 28.1491 14.0933 29.2425 12.5294 28.8047C10.9656 28.3669 10.206 26.5388 8.95266 25.5617C7.74354 24.6191 5.63032 24.2363 4.88572 22.8411C4.14113 21.4459 5.06453 19.5988 4.9786 18.1148C4.88956 16.5763 3.78639 14.9137 4.33863 13.4557C4.89088 11.9977 6.92117 11.2123 8.04675 10.0137C9.13254 8.85761 9.65111 6.89742 11.2085 6.14648C12.7659 5.39553 14.7362 6.15571 16.3591 6.0059C18.0413 5.85058 19.9074 4.75724 21.4713 5.19503C23.0351 5.63282 23.7947 7.46093 25.0481 8.43803C26.257 9.38049 28.3704 9.76339 29.115 11.1586Z" stroke="url(#paint28_linear)" stroke-width="0.1" stroke-miterlimit="10"/>
<path d="M29.5072 11.5149C30.2064 12.9705 29.1976 14.8211 29.2257 16.3412C29.255 17.917 30.307 19.66 29.6895 21.128C29.0722 22.5959 26.9837 23.3173 25.7956 24.4972C24.6496 25.6352 24.0464 27.6178 22.4384 28.3229C20.8305 29.0281 18.8641 28.1724 17.2138 28.2607C15.503 28.3522 13.5687 29.3948 12.0014 28.885C10.4341 28.3751 9.73692 26.4764 8.50551 25.4278C7.31773 24.4162 5.19157 23.9405 4.49239 22.4849C3.79322 21.0292 4.80207 19.1787 4.77391 17.6586C4.74466 16.0828 3.69267 14.3398 4.31011 12.8718C4.92743 11.4039 7.01596 10.6823 8.20398 9.50258C9.35006 8.36453 9.95324 6.38194 11.5612 5.67689C13.1692 4.97173 15.1356 5.82742 16.7858 5.73909C18.4966 5.64753 20.4309 4.605 21.9982 5.11482C23.5656 5.62464 24.2627 7.52334 25.4941 8.57198C26.6819 9.58359 28.8081 10.0593 29.5072 11.5149Z" stroke="url(#paint29_linear)" stroke-width="0.1" stroke-miterlimit="10"/>
<path d="M29.8908 11.8947C30.5415 13.4103 29.4459 15.261 29.4143 16.8156C29.3814 18.4272 30.3783 20.2506 29.6946 21.726C29.0109 23.2015 26.866 23.8553 25.6153 25.0134C24.4088 26.1306 23.7191 28.1325 22.0618 28.7889C20.4046 29.4451 18.4458 28.4921 16.77 28.5163C15.0329 28.5415 13.0315 29.5296 11.4635 28.9459C9.89561 28.3622 9.26438 26.394 8.05827 25.2731C6.89481 24.1919 4.75918 23.6207 4.10842 22.1052C3.45766 20.5897 4.55328 18.7389 4.58492 17.1843C4.61776 15.5727 3.62089 13.7493 4.30461 12.2739C4.98832 10.7985 7.13318 10.1446 8.38388 8.98654C9.59036 7.86935 10.2801 5.86746 11.9374 5.21107C13.5946 4.5548 15.5534 5.50781 17.2292 5.4836C18.9663 5.45843 20.9677 4.47031 22.5356 5.05407C24.1036 5.63772 24.7348 7.60593 25.9409 8.72684C27.1044 9.80796 29.24 10.3791 29.8908 11.8947Z" stroke="url(#paint30_linear)" stroke-width="0.1" stroke-miterlimit="10"/>
<path d="M30.2652 12.298C30.8646 13.8728 29.681 15.7204 29.5872 17.3078C29.4901 18.9533 30.428 20.8566 29.6765 22.337C28.9252 23.8175 26.726 24.3999 25.4127 25.5334C24.1459 26.6269 23.3675 28.6452 21.6623 29.2496C19.957 29.8541 18.01 28.8018 16.311 28.7595C14.5497 28.7158 12.4825 29.6455 10.9169 28.9864C9.35121 28.3272 8.78962 26.2906 7.6119 25.0969C6.47577 23.9455 4.33439 23.2765 3.73504 21.7016C3.1357 20.1269 4.31929 18.2792 4.41301 16.6919C4.5102 15.0463 3.57229 13.143 4.32372 11.6626C5.07503 10.1821 7.2743 9.59969 8.58756 8.4662C9.85432 7.37274 10.6327 5.35443 12.338 4.75005C14.0433 4.14556 15.9903 5.19779 17.6893 5.2401C19.4505 5.28384 21.5177 4.35409 23.0834 5.01323C24.649 5.67238 25.2106 7.70902 26.3883 8.90267C27.5245 10.0543 29.6659 10.7232 30.2652 12.298Z" stroke="url(#paint31_linear)" stroke-width="0.1" stroke-miterlimit="10"/>
<path d="M30.6278 12.7253C31.1728 14.3586 29.9001 16.1995 29.7423 17.8178C29.5786 19.4955 30.4535 21.4781 29.6335 22.961C28.8135 24.4438 26.5619 24.9511 25.1863 26.057C23.8592 27.1239 22.9906 29.1553 21.2387 29.7048C19.4867 30.2544 17.5556 29.1011 15.8356 28.99C14.0526 28.8748 11.9211 29.7424 10.3608 29.0062C8.80037 28.27 8.31201 26.1662 7.16593 24.8993C6.06036 23.6772 3.91706 22.9079 3.37212 21.2745C2.82719 19.6412 4.09982 17.8003 4.25766 16.182C4.42136 14.5042 3.5465 12.5217 4.36648 11.0388C5.18645 9.55597 7.4381 9.04867 8.81368 7.94274C10.1407 6.876 11.0095 4.84463 12.7614 4.29515C14.5134 3.74554 16.4444 4.8988 18.1644 5.0099C19.9474 5.12507 22.0789 4.25751 23.6393 4.99372C25.1997 5.72993 25.6881 7.83368 26.8341 9.10056C27.9396 10.3226 30.083 11.0919 30.6278 12.7253Z" stroke="url(#paint32_linear)" stroke-width="0.1" stroke-miterlimit="10"/>
<path d="M30.9797 13.1772C31.4671 14.868 30.1047 16.6984 29.8805 18.3461C29.6481 20.0541 30.456 22.1151 29.5664 23.5977C28.6766 25.0803 26.3749 25.5087 24.9372 26.5838C23.5503 27.621 22.5896 29.6623 20.7925 30.1538C18.9954 30.6454 17.0844 29.3896 15.3459 29.2074C13.5438 29.0184 11.3496 29.8198 9.79759 29.0051C8.24572 28.1902 7.83417 26.0209 6.72309 24.6803C5.6512 23.3872 3.50993 22.5153 3.02253 20.8243C2.53512 19.1334 3.89751 17.3031 4.12174 15.6554C4.35412 13.9474 3.54625 11.8864 4.43586 10.4038C5.32558 8.92123 7.62732 8.49278 9.06498 7.41765C10.4519 6.38052 11.4126 4.33932 13.2097 3.84772C15.0068 3.35611 16.9178 4.61185 18.6563 4.79413C20.4584 4.98313 22.6526 4.18172 24.2046 4.99643C25.7565 5.81125 26.168 7.98056 27.2791 9.32115C28.3509 10.6143 30.4923 11.4861 30.9797 13.1772Z" stroke="url(#paint33_linear)" stroke-width="0.1" stroke-miterlimit="10"/>
<path d="M31.3159 13.6513C31.7427 15.3987 30.2896 17.2148 29.9971 18.8896C29.6939 20.6258 30.4309 22.7643 29.4706 24.2439C28.5103 25.7235 26.161 26.0692 24.6615 27.1105C23.2149 28.115 22.1606 30.1625 20.3201 30.593C18.4796 31.0235 16.5929 29.6639 14.8385 29.4081C13.0199 29.143 10.7647 29.8742 9.22438 28.9796C7.68414 28.0849 7.35313 25.8514 6.2804 24.4371C5.24554 23.0728 3.11026 22.096 2.68337 20.3486C2.25649 18.6011 3.70961 16.7851 4.00215 15.1103C4.30535 13.3741 3.56831 11.2356 4.52862 9.75597C5.48906 8.27637 7.83838 7.93061 9.33788 6.8894C10.7844 5.88486 11.8388 3.83732 13.6793 3.40683C15.5197 2.97635 17.4064 4.33599 19.1608 4.59174C20.9795 4.85684 23.2346 4.12566 24.775 5.0203C26.3152 5.91494 26.6462 8.14849 27.719 9.56278C28.7537 10.9272 30.889 11.9038 31.3159 13.6513Z" stroke="url(#paint34_linear)" stroke-width="0.1" stroke-miterlimit="10"/>
<path d="M31.6394 14.1502C32.0026 15.9531 30.4582 17.7508 30.0954 19.4507C29.7193 21.2129 30.3814 23.4277 29.3496 24.9013C28.3179 26.375 25.9236 26.6344 24.3629 27.6386C22.8573 28.6073 21.7077 30.6576 19.8257 31.024C17.9436 31.3903 16.0857 29.9255 14.3182 29.594C12.4859 29.2503 10.1717 29.9075 8.64643 28.9316C7.12117 27.9557 6.87429 25.6601 5.84338 24.1719C4.84891 22.7362 2.72382 21.6527 2.36057 19.8499C1.99732 18.0469 3.54176 16.2493 3.90453 14.5494C4.28061 12.7872 3.61858 10.5723 4.65033 9.09873C5.68207 7.62512 8.07633 7.36565 9.63707 6.36147C11.1427 5.39277 12.2922 3.34246 14.1743 2.9761C16.0563 2.60973 17.9143 4.0746 19.6817 4.40609C21.514 4.7498 23.8283 4.09257 25.3535 5.06847C26.8788 6.04436 27.1257 8.33999 28.1566 9.82822C29.1512 11.2638 31.2761 12.3472 31.6394 14.1502Z" stroke="url(#paint35_linear)" stroke-width="0.1" stroke-miterlimit="10"/>
<path d="M31.9455 14.6728C32.2422 16.5298 30.6059 18.3052 30.171 20.0278C29.7201 21.8136 30.3031 24.1035 29.1992 25.5683C28.0953 27.033 25.6588 27.2023 24.0376 28.1661C22.4736 29.0959 21.2273 31.1452 19.3059 31.4444C17.3843 31.7435 15.5598 30.1722 13.7817 29.7628C11.9386 29.3383 9.56764 29.9174 8.06083 28.8591C6.5539 27.8009 6.39487 25.4449 5.40914 23.8828C4.45829 22.3758 2.34795 21.1837 2.05133 19.3267C1.75472 17.4697 3.39096 15.6944 3.82587 13.9717C4.27673 12.1859 3.6938 9.89604 4.79769 8.43129C5.90159 6.96655 8.33803 6.79721 9.95929 5.83342C11.5233 4.90366 12.7695 2.85431 14.691 2.55518C16.6126 2.25605 18.4371 3.82734 20.2151 4.23672C22.0582 4.66122 24.4292 4.08213 25.936 5.14047C27.443 6.1987 27.602 8.55461 28.5877 10.1168C29.5386 11.6237 31.6489 12.8158 31.9455 14.6728Z" stroke="url(#paint36_linear)" stroke-width="0.1" stroke-miterlimit="10"/>
<path d="M32.2381 15.2196C32.465 17.1292 30.7366 18.8781 30.2275 20.6212C29.6999 22.4281 30.1999 24.7916 29.0232 26.2444C27.8466 27.6971 25.3711 27.7727 23.69 28.6929C22.0684 29.5805 20.7243 31.625 18.7653 31.8539C16.8064 32.0828 15.0198 30.4042 13.2344 29.9146C11.3836 29.4072 8.95808 29.9041 7.47309 28.7623C5.98809 27.6205 5.92026 25.2066 4.98343 23.5709C4.07968 21.9929 1.98851 20.6903 1.76164 18.7807C1.53466 16.8711 3.26306 15.1222 3.77216 13.379C4.29984 11.5721 3.79984 9.20866 4.97648 7.7559C6.15312 6.30314 8.62863 6.22752 10.3097 5.30735C11.9313 4.41978 13.2754 2.37523 15.2344 2.14632C17.1933 1.91742 18.9799 3.59609 20.7653 4.08565C22.6161 4.59308 25.0416 4.0962 26.5266 5.23796C28.0116 6.37972 28.0794 8.79364 29.0163 10.4294C29.92 12.0074 32.0111 13.31 32.2381 15.2196Z" stroke="url(#paint37_linear)" stroke-width="0.1" stroke-miterlimit="10"/>
<path d="M32.5127 15.7896C32.667 17.7501 30.8463 19.4684 30.2613 21.2294C29.655 23.0548 30.0679 25.4901 28.818 26.9276C27.5682 28.3652 25.0567 28.3436 23.3168 29.2167C21.6384 30.0589 20.1954 32.0945 18.2013 32.2501C16.2072 32.4056 14.4634 30.6187 12.6737 30.0471C10.8184 29.4544 8.34099 29.8654 6.88152 28.6392C5.42205 27.4131 5.44902 24.9435 4.56456 23.2344C3.71139 21.5857 1.64406 20.1708 1.4897 18.2102C1.33546 16.2497 3.15615 14.5315 3.74111 12.7705C4.3474 10.945 3.93454 8.50976 5.1844 7.07222C6.43426 5.63468 8.94573 5.65625 10.6856 4.78318C12.3641 3.94091 13.807 1.90535 15.8011 1.74979C17.7952 1.59423 19.5391 3.38112 21.3287 3.95278C23.184 4.54541 25.6614 4.13446 27.1209 5.3606C28.5804 6.58673 28.5534 9.05637 29.4379 10.7655C30.2912 12.4143 32.3585 13.8292 32.5127 15.7896Z" stroke="url(#paint38_linear)" stroke-width="0.1" stroke-miterlimit="10"/>
<path d="M32.7646 16.3835C32.8432 18.3932 30.9301 20.0763 30.2676 21.8525C29.5809 23.6938 29.9028 26.199 28.5792 27.6181C27.2558 29.0372 24.7117 28.9147 22.9141 29.7374C21.1799 30.531 19.637 32.5537 17.6102 32.6329C15.5834 32.7122 13.8872 30.8163 12.0964 30.1606C10.24 29.4808 7.71319 29.8017 6.28296 28.4903C4.85273 27.179 4.97785 24.6563 4.14936 22.8743C3.35012 21.1552 1.31144 19.6267 1.23282 17.617C1.1542 15.6074 3.06729 13.9243 3.72979 12.1481C4.4165 10.3068 4.0946 7.80152 5.41816 6.38244C6.74173 4.96335 9.28567 5.08584 11.0833 4.2631C12.8175 3.46949 14.3604 1.44687 16.3872 1.36765C18.414 1.28831 20.1102 3.18426 21.901 3.83993C23.7574 4.51969 26.2842 4.19886 27.7144 5.51021C29.1447 6.82155 29.0196 9.34428 29.848 11.1263C30.6472 12.8453 32.686 14.3738 32.7646 16.3835Z" stroke="url(#paint39_linear)" stroke-width="0.1" stroke-miterlimit="10"/>
<path d="M33 17C33 19.0569 30.9948 20.7004 30.253 22.4891C29.4841 24.3434 29.711 26.9163 28.3137 28.3137C26.9163 29.711 24.3434 29.4841 22.4891 30.253C20.7004 30.9948 19.0569 33 17 33C14.9431 33 13.2996 30.9948 11.5109 30.253C9.65663 29.4841 7.08368 29.711 5.68629 28.3137C4.28902 26.9163 4.51589 24.3434 3.74696 22.4891C3.00524 20.7004 1 19.0569 1 17C1 14.9431 3.00524 13.2996 3.74696 11.5109C4.51589 9.65663 4.28902 7.08368 5.68629 5.68629C7.08368 4.28902 9.65663 4.51589 11.5109 3.74696C13.2996 3.00524 14.9431 1 17 1C19.0569 1 20.7004 3.00524 22.4891 3.74696C24.3434 4.51589 26.9163 4.28902 28.3137 5.68629C29.711 7.08368 29.4841 9.65663 30.253 11.5109C30.9948 13.2996 33 14.9431 33 17Z" stroke="url(#paint40_linear)" stroke-width="0.1" stroke-miterlimit="10"/>
<defs>
<linearGradient id="paint0_linear" x1="9.25781" y1="16.999" x2="24.3571" y2="16.999" gradientUnits="userSpaceOnUse">
<stop stop-color="#E926C3"/>
<stop offset="1" stop-color="#FF4D86"/>
</linearGradient>
<linearGradient id="paint1_linear" x1="9.11621" y1="16.9998" x2="24.4894" y2="16.9998" gradientUnits="userSpaceOnUse">
<stop stop-color="#E926C3"/>
<stop offset="1" stop-color="#FF4D86"/>
</linearGradient>
<linearGradient id="paint2_linear" x1="8.98438" y1="16.9995" x2="24.6177" y2="16.9995" gradientUnits="userSpaceOnUse">
<stop stop-color="#E926C3"/>
<stop offset="1" stop-color="#FF4D86"/>
</linearGradient>
<linearGradient id="paint3_linear" x1="8.85547" y1="17.0004" x2="24.7344" y2="17.0004" gradientUnits="userSpaceOnUse">
<stop stop-color="#E926C3"/>
<stop offset="1" stop-color="#FF4D86"/>
</linearGradient>
<linearGradient id="paint4_linear" x1="8.73926" y1="17" x2="24.8483" y2="17" gradientUnits="userSpaceOnUse">
<stop stop-color="#E926C3"/>
<stop offset="1" stop-color="#FF4D86"/>
</linearGradient>
<linearGradient id="paint5_linear" x1="8.62891" y1="17" x2="24.9527" y2="17" gradientUnits="userSpaceOnUse">
<stop stop-color="#E926C3"/>
<stop offset="1" stop-color="#FF4D86"/>
</linearGradient>
<linearGradient id="paint6_linear" x1="8.52734" y1="17" x2="25.0489" y2="17" gradientUnits="userSpaceOnUse">
<stop stop-color="#E926C3"/>
<stop offset="1" stop-color="#FF4D86"/>
</linearGradient>
<linearGradient id="paint7_linear" x1="8.43457" y1="17" x2="25.1374" y2="17" gradientUnits="userSpaceOnUse">
<stop stop-color="#E926C3"/>
<stop offset="1" stop-color="#FF4D86"/>
</linearGradient>
<linearGradient id="paint8_linear" x1="8.20313" y1="17.0009" x2="25.3532" y2="17.0009" gradientUnits="userSpaceOnUse">
<stop stop-color="#E926C3"/>
<stop offset="1" stop-color="#FF4D86"/>
</linearGradient>
<linearGradient id="paint9_linear" x1="7.92578" y1="16.9995" x2="25.6176" y2="16.9995" gradientUnits="userSpaceOnUse">
<stop stop-color="#E926C3"/>
<stop offset="1" stop-color="#FF4D86"/>
</linearGradient>
<linearGradient id="paint10_linear" x1="7.65332" y1="16.9999" x2="25.8802" y2="16.9999" gradientUnits="userSpaceOnUse">
<stop stop-color="#E926C3"/>
<stop offset="1" stop-color="#FF4D86"/>
</linearGradient>
<linearGradient id="paint11_linear" x1="7.38281" y1="17.0001" x2="26.1366" y2="17.0001" gradientUnits="userSpaceOnUse">
<stop stop-color="#E926C3"/>
<stop offset="1" stop-color="#FF4D86"/>
</linearGradient>
<linearGradient id="paint12_linear" x1="7.11719" y1="17.0001" x2="26.388" y2="17.0001" gradientUnits="userSpaceOnUse">
<stop stop-color="#E926C3"/>
<stop offset="1" stop-color="#FF4D86"/>
</linearGradient>
<linearGradient id="paint13_linear" x1="6.85938" y1="16.9999" x2="26.6359" y2="16.9999" gradientUnits="userSpaceOnUse">
<stop stop-color="#E926C3"/>
<stop offset="1" stop-color="#FF4D86"/>
</linearGradient>
<linearGradient id="paint14_linear" x1="6.60547" y1="16.9999" x2="26.8748" y2="16.9999" gradientUnits="userSpaceOnUse">
<stop stop-color="#E926C3"/>
<stop offset="1" stop-color="#FF4D86"/>
</linearGradient>
<linearGradient id="paint15_linear" x1="6.36035" y1="16.9999" x2="27.1079" y2="16.9999" gradientUnits="userSpaceOnUse">
<stop stop-color="#E926C3"/>
<stop offset="1" stop-color="#FF4D86"/>
</linearGradient>
<linearGradient id="paint16_linear" x1="6.125" y1="16.9991" x2="27.3347" y2="16.9991" gradientUnits="userSpaceOnUse">
<stop stop-color="#E926C3"/>
<stop offset="1" stop-color="#FF4D86"/>
</linearGradient>
<linearGradient id="paint17_linear" x1="5.89551" y1="16.9998" x2="27.55" y2="16.9998" gradientUnits="userSpaceOnUse">
<stop stop-color="#E926C3"/>
<stop offset="1" stop-color="#FF4D86"/>
</linearGradient>
<linearGradient id="paint18_linear" x1="5.67578" y1="17.0007" x2="27.7559" y2="17.0007" gradientUnits="userSpaceOnUse">
<stop stop-color="#E926C3"/>
<stop offset="1" stop-color="#FF4D86"/>
</linearGradient>
<linearGradient id="paint19_linear" x1="5.46875" y1="16.9999" x2="27.9538" y2="16.9999" gradientUnits="userSpaceOnUse">
<stop stop-color="#E926C3"/>
<stop offset="1" stop-color="#FF4D86"/>
</linearGradient>
<linearGradient id="paint20_linear" x1="5.27246" y1="17" x2="28.1405" y2="17" gradientUnits="userSpaceOnUse">
<stop stop-color="#E926C3"/>
<stop offset="1" stop-color="#FF4D86"/>
</linearGradient>
<linearGradient id="paint21_linear" x1="5.08984" y1="16.9995" x2="28.3176" y2="16.9995" gradientUnits="userSpaceOnUse">
<stop stop-color="#E926C3"/>
<stop offset="1" stop-color="#FF4D86"/>
</linearGradient>
<linearGradient id="paint22_linear" x1="4.91797" y1="16.9991" x2="28.4809" y2="16.9991" gradientUnits="userSpaceOnUse">
<stop stop-color="#E926C3"/>
<stop offset="1" stop-color="#FF4D86"/>
</linearGradient>
<linearGradient id="paint23_linear" x1="4.75781" y1="16.9999" x2="28.6298" y2="16.9999" gradientUnits="userSpaceOnUse">
<stop stop-color="#E926C3"/>
<stop offset="1" stop-color="#FF4D86"/>
</linearGradient>
<linearGradient id="paint24_linear" x1="4.61328" y1="16.9998" x2="28.7674" y2="16.9998" gradientUnits="userSpaceOnUse">
<stop stop-color="#E926C3"/>
<stop offset="1" stop-color="#FF4D86"/>
</linearGradient>
<linearGradient id="paint25_linear" x1="4.48438" y1="16.9995" x2="28.8925" y2="16.9995" gradientUnits="userSpaceOnUse">
<stop stop-color="#E926C3"/>
<stop offset="1" stop-color="#FF4D86"/>
</linearGradient>
<linearGradient id="paint26_linear" x1="4.36816" y1="16.9999" x2="29.0009" y2="16.9999" gradientUnits="userSpaceOnUse">
<stop stop-color="#E926C3"/>
<stop offset="1" stop-color="#FF4D86"/>
</linearGradient>
<linearGradient id="paint27_linear" x1="4.26953" y1="16.9992" x2="29.0968" y2="16.9992" gradientUnits="userSpaceOnUse">
<stop stop-color="#E926C3"/>
<stop offset="1" stop-color="#FF4D86"/>
</linearGradient>
<linearGradient id="paint28_linear" x1="4.18457" y1="16.9999" x2="29.1753" y2="16.9999" gradientUnits="userSpaceOnUse">
<stop stop-color="#E926C3"/>
<stop offset="1" stop-color="#FF4D86"/>
</linearGradient>
<linearGradient id="paint29_linear" x1="4.11621" y1="16.9999" x2="29.2392" y2="16.9999" gradientUnits="userSpaceOnUse">
<stop stop-color="#E926C3"/>
<stop offset="1" stop-color="#FF4D86"/>
</linearGradient>
<linearGradient id="paint30_linear" x1="3.90234" y1="17" x2="29.442" y2="17" gradientUnits="userSpaceOnUse">
<stop stop-color="#E926C3"/>
<stop offset="1" stop-color="#FF4D86"/>
</linearGradient>
<linearGradient id="paint31_linear" x1="3.56641" y1="16.9998" x2="29.7622" y2="16.9998" gradientUnits="userSpaceOnUse">
<stop stop-color="#E926C3"/>
<stop offset="1" stop-color="#FF4D86"/>
</linearGradient>
<linearGradient id="paint32_linear" x1="3.2373" y1="17" x2="30.0745" y2="17" gradientUnits="userSpaceOnUse">
<stop stop-color="#E926C3"/>
<stop offset="1" stop-color="#FF4D86"/>
</linearGradient>
<linearGradient id="paint33_linear" x1="2.91797" y1="17.0007" x2="30.3801" y2="17.0007" gradientUnits="userSpaceOnUse">
<stop stop-color="#E926C3"/>
<stop offset="1" stop-color="#FF4D86"/>
</linearGradient>
<linearGradient id="paint34_linear" x1="2.60547" y1="16.9999" x2="30.6741" y2="16.9999" gradientUnits="userSpaceOnUse">
<stop stop-color="#E926C3"/>
<stop offset="1" stop-color="#FF4D86"/>
</linearGradient>
<linearGradient id="paint35_linear" x1="2.30566" y1="17" x2="30.9596" y2="17" gradientUnits="userSpaceOnUse">
<stop stop-color="#E926C3"/>
<stop offset="1" stop-color="#FF4D86"/>
</linearGradient>
<linearGradient id="paint36_linear" x1="2.01563" y1="16.9998" x2="31.2321" y2="16.9998" gradientUnits="userSpaceOnUse">
<stop stop-color="#E926C3"/>
<stop offset="1" stop-color="#FF4D86"/>
</linearGradient>
<linearGradient id="paint37_linear" x1="1.74121" y1="17.0001" x2="31.4956" y2="17.0001" gradientUnits="userSpaceOnUse">
<stop stop-color="#E926C3"/>
<stop offset="1" stop-color="#FF4D86"/>
</linearGradient>
<linearGradient id="paint38_linear" x1="1.48047" y1="16.9999" x2="31.7459" y2="16.9999" gradientUnits="userSpaceOnUse">
<stop stop-color="#E926C3"/>
<stop offset="1" stop-color="#FF4D86"/>
</linearGradient>
<linearGradient id="paint39_linear" x1="1.23047" y1="17.0003" x2="31.9785" y2="17.0003" gradientUnits="userSpaceOnUse">
<stop stop-color="#E926C3"/>
<stop offset="1" stop-color="#FF4D86"/>
</linearGradient>
<linearGradient id="paint40_linear" x1="1" y1="17" x2="32.2" y2="17" gradientUnits="userSpaceOnUse">
<stop stop-color="#E926C3"/>
<stop offset="1" stop-color="#FF4D86"/>
</linearGradient>
</defs>
</svg>
