<svg width="24" height="24" viewBox="0 0 24 24" fill="none" xmlns="http://www.w3.org/2000/svg">
<path fill-rule="evenodd" clip-rule="evenodd" d="M20.2498 11.4L21.7498 10.2C22.3498 9.75 22.3498 8.85 22.0498 8.25L20.2498 5.25C19.9498 4.8 19.4998 4.5 18.8998 4.5C18.7498 4.5 18.5998 4.5 18.4498 4.65L16.6498 5.25C16.5381 5.19416 16.4264 5.11753 16.307 5.03559L16.307 5.03558C16.1056 4.89742 15.8823 4.74416 15.5998 4.65L15.1498 2.7C15.1498 1.95 14.5498 1.5 13.7998 1.5H10.1998C9.44981 1.5 8.8498 1.95 8.69981 2.7L8.39981 4.65C7.94981 4.8 7.64981 4.95 7.34981 5.1L5.5498 4.5H5.09981C4.4998 4.5 4.0498 4.8 3.7498 5.25L1.9498 8.25C1.6498 8.85 1.7998 9.6 2.3998 10.2L3.7498 11.55V12.75L2.3998 13.8C1.7998 14.25 1.6498 15.15 2.0998 15.75L3.8998 18.75C4.0498 19.2 4.4998 19.5 5.09981 19.5C5.2498 19.5 5.39981 19.5 5.5498 19.35L7.34981 18.75C7.46149 18.8058 7.57317 18.8825 7.6926 18.9644C7.89396 19.1026 8.11733 19.2558 8.39981 19.35L8.8498 21.3C8.9998 22.05 9.5998 22.5 10.3498 22.5H13.9498C14.6998 22.5 15.2998 22.05 15.4498 21.3L15.8998 19.35C16.1998 19.2 16.4998 19.05 16.9498 18.75L18.7498 19.35C18.8248 19.35 18.8998 19.3875 18.9748 19.425C19.0498 19.4625 19.1248 19.5 19.1998 19.5C19.7998 19.5 20.2498 19.2 20.5498 18.75L22.1998 15.75C22.4998 15.15 22.4998 14.4 21.8998 13.8L20.2498 12.6V11.4ZM7.49982 12C7.49982 14.55 9.44982 16.5 11.9998 16.5C14.5498 16.5 16.4998 14.4 16.4998 12C16.4998 9.45 14.5498 7.5 11.9998 7.5C9.44982 7.5 7.49982 9.45 7.49982 12ZM8.99982 11.85C8.99982 10.2 10.3498 9 11.9998 9C13.7998 9 14.9998 10.35 14.9998 12V12.15C14.9998 13.8 13.6498 15 11.9998 15H11.8498C10.1998 15 8.99982 13.65 8.99982 12V11.85ZM16.3498 17.1L18.8998 18L20.6998 15L18.5998 13.2C18.7498 12.45 18.7498 11.55 18.5998 10.8L20.6998 9L18.8998 6L16.4998 6.9C16.2899 6.77407 16.0918 6.64814 15.8988 6.52549C15.4022 6.20989 14.9399 5.91605 14.3998 5.7L13.7998 3H10.1998L9.74981 5.7C8.99981 6 8.24981 6.3 7.64981 6.9L5.0998 6L3.2998 9L5.3998 10.8C5.2498 11.55 5.2498 12.45 5.3998 13.2L3.2998 15L5.0998 18L7.4998 17.1C7.70969 17.2259 7.90783 17.3519 8.1008 17.4745C8.59737 17.7901 9.05969 18.084 9.5998 18.3L10.1998 21H13.7998L14.2498 18.3C14.9998 18 15.7498 17.55 16.3498 17.1Z" fill="white"/>
</svg>
