<svg width="32" height="32" viewBox="0 0 32 32" fill="none" xmlns="http://www.w3.org/2000/svg">
<path fill-rule="evenodd" clip-rule="evenodd" d="M2 16C2 8.26801 8.26801 2 16 2C19.713 2 23.274 3.475 25.8995 6.10051C28.525 8.72601 30 12.287 30 16C30 23.732 23.732 30 16 30C8.26801 30 2 23.732 2 16ZM4 16C4 22.6274 9.37258 28 16 28C22.6274 28 28 22.6274 28 16C28 9.37258 22.6274 4 16 4C9.37258 4 4 9.37258 4 16Z" fill="url(#paint0_linear)"/>
<circle cx="16.0013" cy="15.9974" r="5.33333" fill="url(#paint1_linear)"/>
<defs>
<linearGradient id="paint0_linear" x1="2" y1="16" x2="29.3" y2="16" gradientUnits="userSpaceOnUse">
<stop stop-color="#E926C3"/>
<stop offset="1" stop-color="#FF4D86"/>
</linearGradient>
<linearGradient id="paint1_linear" x1="10.668" y1="15.9974" x2="21.068" y2="15.9974" gradientUnits="userSpaceOnUse">
<stop stop-color="#E926C3"/>
<stop offset="1" stop-color="#FF4D86"/>
</linearGradient>
</defs>
</svg>
