<svg width="40" height="40" viewBox="0 0 40 40" fill="none" xmlns="http://www.w3.org/2000/svg">
<path d="M0 20C0 8.95431 8.95431 0 20 0C31.0457 0 40 8.95431 40 20C40 31.0457 31.0457 40 20 40C8.95431 40 0 31.0457 0 20Z" fill="#17171C"/>
<path fill-rule="evenodd" clip-rule="evenodd" d="M28.2498 19.4L29.7498 18.2C30.3498 17.75 30.3498 16.85 30.0498 16.25L28.2498 13.25C27.9498 12.8 27.4998 12.5 26.8998 12.5C26.7498 12.5 26.5998 12.5 26.4498 12.65L24.6498 13.25C24.5381 13.1942 24.4264 13.1175 24.307 13.0356L24.307 13.0356C24.1056 12.8974 23.8823 12.7442 23.5998 12.65L23.1498 10.7C23.1498 9.95 22.5498 9.5 21.7998 9.5H18.1998C17.4498 9.5 16.8498 9.95 16.6998 10.7L16.3998 12.65C15.9498 12.8 15.6498 12.95 15.3498 13.1L13.5498 12.5H13.0998C12.4998 12.5 12.0498 12.8 11.7498 13.25L9.9498 16.25C9.6498 16.85 9.7998 17.6 10.3998 18.2L11.7498 19.55V20.75L10.3998 21.8C9.7998 22.25 9.6498 23.15 10.0998 23.75L11.8998 26.75C12.0498 27.2 12.4998 27.5 13.0998 27.5C13.2498 27.5 13.3998 27.5 13.5498 27.35L15.3498 26.75C15.4615 26.8058 15.5732 26.8825 15.6926 26.9644C15.894 27.1026 16.1173 27.2558 16.3998 27.35L16.8498 29.3C16.9998 30.05 17.5998 30.5 18.3498 30.5H21.9498C22.6998 30.5 23.2998 30.05 23.4498 29.3L23.8998 27.35C24.1998 27.2 24.4998 27.05 24.9498 26.75L26.7498 27.35C26.8248 27.35 26.8998 27.3875 26.9748 27.425C27.0498 27.4625 27.1248 27.5 27.1998 27.5C27.7998 27.5 28.2498 27.2 28.5498 26.75L30.1998 23.75C30.4998 23.15 30.4998 22.4 29.8998 21.8L28.2498 20.6V19.4ZM15.4998 20C15.4998 22.55 17.4498 24.5 19.9998 24.5C22.5498 24.5 24.4998 22.4 24.4998 20C24.4998 17.45 22.5498 15.5 19.9998 15.5C17.4498 15.5 15.4998 17.45 15.4998 20ZM16.9998 19.85C16.9998 18.2 18.3498 17 19.9998 17C21.7998 17 22.9998 18.35 22.9998 20V20.15C22.9998 21.8 21.6498 23 19.9998 23H19.8498C18.1998 23 16.9998 21.65 16.9998 20V19.85ZM24.3498 25.1L26.8998 26L28.6998 23L26.5998 21.2C26.7498 20.45 26.7498 19.55 26.5998 18.8L28.6998 17L26.8998 14L24.4998 14.9C24.2899 14.7741 24.0918 14.6481 23.8988 14.5255C23.4022 14.2099 22.9399 13.916 22.3998 13.7L21.7998 11H18.1998L17.7498 13.7C16.9998 14 16.2498 14.3 15.6498 14.9L13.0998 14L11.2998 17L13.3998 18.8C13.2498 19.55 13.2498 20.45 13.3998 21.2L11.2998 23L13.0998 26L15.4998 25.1C15.7097 25.2259 15.9078 25.3519 16.1008 25.4745C16.5974 25.7901 17.0597 26.084 17.5998 26.3L18.1998 29H21.7998L22.2498 26.3C22.9998 26 23.7498 25.55 24.3498 25.1Z" fill="white"/>
</svg>
