<svg width="56" height="56" viewBox="0 0 56 56" fill="none" xmlns="http://www.w3.org/2000/svg">
<path d="M0 28C0 12.536 12.536 0 28 0C43.464 0 56 12.536 56 28C56 43.464 43.464 56 28 56C12.536 56 0 43.464 0 28Z" fill="#B4B4BC"/>
<g clip-path="url(#clip0_447:80158)">
<path d="M27.9967 3.5L27.668 4.61664V37.0162L27.9967 37.3442L43.0359 28.4544L27.9967 3.5Z" fill="#343434"/>
<path d="M27.9966 3.5L12.957 28.4544L27.9966 37.3442V21.6183V3.5Z" fill="#8C8C8C"/>
<path d="M27.9978 40.1928L27.8125 40.4188V51.96L27.9978 52.5008L43.0462 31.3076L27.9978 40.1928Z" fill="#3C3C3B"/>
<path d="M27.9966 52.5008V40.1928L12.957 31.3076L27.9966 52.5008Z" fill="#8C8C8C"/>
<path d="M27.998 37.344L43.0373 28.4542L27.998 21.6182V37.344Z" fill="#141414"/>
<path d="M12.957 28.4542L27.9966 37.344V21.6182L12.957 28.4542Z" fill="#393939"/>
</g>
<defs>
<clipPath id="clip0_447:80158">
<rect x="3.5" y="3.5" width="49" height="49" fill="white"/>
</clipPath>
</defs>
</svg>
