<svg width="24" height="24" viewBox="0 0 24 24" fill="none" xmlns="http://www.w3.org/2000/svg">
<path fill-rule="evenodd" clip-rule="evenodd" d="M22.4989 21.4414L16.8364 15.7489C19.6484 12.356 19.2975 7.35217 16.0395 4.38494C12.7815 1.41771 7.76676 1.53475 4.65076 4.65076C1.53475 7.76676 1.41771 12.7815 4.38494 16.0395C7.35217 19.2975 12.356 19.6484 15.7489 16.8364L21.4414 22.4989L22.4989 21.4414ZM3.74887 10.4989C3.74887 6.77095 6.77095 3.74887 10.4989 3.74887C14.2268 3.74887 17.2489 6.77095 17.2489 10.4989C17.2489 14.2268 14.2268 17.2489 10.4989 17.2489C6.77095 17.2489 3.74887 14.2268 3.74887 10.4989Z" fill="#999999"/>
</svg>
