<svg width="116" height="31" viewBox="0 0 116 31" fill="none" xmlns="http://www.w3.org/2000/svg">
<path d="M0.25 25.3121C0.25 25.3121 6.09084 22.9059 9.84547 23.5112C11.8765 23.8386 12.9124 24.9388 14.94 25.3121C19.2026 26.097 21.739 25.2901 25.8709 23.5112C28.6415 22.3184 29.8179 19.1849 32.6965 19.2662C35.4505 19.3441 36.6443 21.8581 39.176 23.5112C42.4189 25.6287 44.0421 30.0853 47.4854 28.9139C49.2747 28.3052 49.7317 25.7598 51.5413 25.3121C53.6366 24.7937 54.8244 28.742 56.7841 27.4989C58.0824 26.6754 58.2661 25.0311 59.2572 23.5112C61.3155 20.3547 61.9652 16.9463 64.7969 15.8574C67.0462 14.9925 68.5121 15.8324 70.6827 17.0794C71.8227 17.7343 72.3546 18.462 73.4526 19.2662C77.7591 22.4205 80.2544 24.9519 85.0268 25.3121C89.3408 25.6377 92.3792 25.803 95.8585 21.9033C97.245 20.3492 97.9967 19.2879 98.9251 17.0794C99.982 14.5651 99.3866 12.2124 100.607 9.87585C102.171 6.87986 103.879 4.69275 106.344 5.43793C108.151 5.98414 108.226 9.53042 110.054 9.87585C113.016 10.4355 115 1 115 1" stroke="#00AF00"/>
<path d="M9.84547 23.5112C6.09084 22.9059 0.25 25.3121 0.25 25.3121V31H115V1C115 1 113.016 10.4355 110.054 9.87585C108.226 9.53042 108.151 5.98414 106.344 5.43793C103.879 4.69275 102.171 6.87986 100.607 9.87585C99.3866 12.2124 99.982 14.5651 98.9251 17.0794C97.9967 19.2879 97.245 20.3492 95.8585 21.9033C92.3792 25.803 89.3408 25.6377 85.0268 25.3121C80.2543 24.9519 77.7591 22.4205 73.4526 19.2662C72.3546 18.462 71.8227 17.7343 70.6827 17.0794C68.5121 15.8324 67.0462 14.9925 64.7969 15.8574C61.9652 16.9463 61.3155 20.3547 59.2572 23.5112C58.2661 25.0311 58.0824 26.6754 56.7841 27.4989C54.8244 28.742 53.6366 24.7937 51.5413 25.3121C49.7317 25.7598 49.2747 28.3052 47.4854 28.9139C44.0421 30.0853 42.4189 25.6287 39.176 23.5112C36.6443 21.8581 35.4505 19.3441 32.6965 19.2662C29.8179 19.1849 28.6415 22.3184 25.8709 23.5112C21.739 25.2901 19.2026 26.097 14.94 25.3121C12.9124 24.9388 11.8765 23.8386 9.84547 23.5112Z" fill="url(#paint0_linear)"/>
<defs>
<linearGradient id="paint0_linear" x1="57.625" y1="1" x2="57.625" y2="31" gradientUnits="userSpaceOnUse">
<stop stop-color="#003C00"/>
<stop offset="1" stop-color="#070708"/>
</linearGradient>
</defs>
</svg>
